     The The Matrix Trilogy Collection 1080p BDRip In[Hindi-Eng]AC3-DGrea8
   

Summary:-


Thomas A. Anderson is a man living two lives. By day he is an average computer programmer and by night a hacker known as Neo. Neo has always questioned his reality, but the truth is far beyond his imagination. Neo finds himself targeted by the police when he is contacted by Morpheus, a legendary computer hacker branded a terrorist by the government. Morpheus awakens Neo to the real world, a ravaged wasteland where most of humanity have been captured by a race of machines that live off of the humans' body heat and electrochemical energy and who imprison their minds within an artificial reality known as the Matrix. As a rebel against the machines, Neo must return to the Matrix and confront the agents: super-powerful computer programs devoted to snuffing out Neo and the entire human rebellion.

Cast:-


Keanu Reeves..........	Neo
Laurence Fishburne....	Morpheus
Carrie-Anne Moss......	Trinity
Hugo Weaving..........	Agent Smith
Gloria Foster.........	Oracle
Joe Pantoliano........	Cypher
Marcus Chong..........	Tank
Julian Arahanga.......	Apoc
Matt Doran............	Mouse
Belinda McClory.......	Switch
Anthony Ray Parker....	Dozer
Paul Goddard..........	Agent Brown
Robert Taylor.........	Agent Jones
David Aston...........	Rhineheart
Marc Aden Gray........	Choi (as Marc Gray)



Video & Audio Info.:-

Directors: Andy Wachowski, Lana Wachowski
Writers: Andy Wachowski, Lana Wachowski
Stars: Keanu Reeves, Laurence Fishburne, Carrie-Anne Moss
Release Date: 31 March 1999 (USA)
Filming Locations: AON Tower, Kent Street, Sydney, New South Wales, Australia
Genres: Action | Adventure | Sci-Fi

Box Office
Budget: $63,000,000 (estimated)
Opening Weekend: $646,184 (Germany) (23 May 2003)
Gross: $646,184 (Germany) (23 May 2003)


Video
ID : 1
Format : AVC
Muxing mode : Header stripping
Codec ID : V_MPEG4/ISO/AVC
Duration : 2h 10mn
Bit rate : 2 929 Kbps
Width : 1 920 pixels
Height : 796 pixels
Frame rate mode : Variable
Frame rate : 25.000 fps
Color space : YUV
Bit depth : 8 bits
Scan type : Progressive
Stream size : 2.67 GiB (76%)


Audio #1
ID : 2
Format : AC-3
Format/Info : Audio Coding 3
Mode extension : CM (complete main)
Muxing mode : Header stripping
Codec ID : A_AC3
Duration : 2h 10mn
Bit rate mode : Constant
Bit rate : 640 Kbps
Channel(s) : 6 channels
Channel positions : Front: L C R, Side: L R, LFE
Sampling rate : 48.0 KHz
Bit depth : 16 bits
Compression mode : Lossy
Stream size : 598 MiB (17%)
Title : English Dolby Digital 5.1 (AC3 640 Kbps)
Language : English

Audio #2
ID : 3
Format : AC-3
Format/Info : Audio Coding 3
Mode extension : CM (complete main)
Muxing mode : Header stripping
Codec ID : A_AC3
Duration : 2h 10mn
Bit rate mode : Constant
Bit rate : 224 Kbps
Channel(s) : 2 channels
Channel positions : Front: L R
Sampling rate : 48.0 KHz
Bit depth : 16 bits
Compression mode : Lossy
Delay relative to video : 28ms
Stream size : 209 MiB (6%)
Title : ORG-DVD HINDI 2Ch.Ac3
Language : Hindi

Subtitle Languages : English



Screen Shoots:-

        
http://www.shotpix.com/images/70798497267678144686.jpg
 
http://www.shotpix.com/images/09532132328975698938.jpg
 
http://www.shotpix.com/images/69927604871735563530.jpg
 
http://www.shotpix.com/images/39208949752868863027.jpg
 
http://www.shotpix.com/images/58278301737094613639.jpg


Note:-- Check The Torrent


SAMPLE VIDEO IS AVAILABLE

              OR

AUDIO SOURCE ORG.DVD HINDI AUDIO 2Ch.Ac3


.............................COMMENT MY WORK...................................
						